<?xml version="1.0" standalone="no"?><svg xmlns="http://www.w3.org/2000/svg" viewBox="0 0 1440 320"><path fill="#16aab5" fill-opacity="0.5" d="M0,128L26.7,149.3C53.3,171,107,213,160,213.3C213.3,213,267,171,320,144C373.3,117,427,107,480,128C533.3,149,587,203,640,192C693.3,181,747,107,800,69.3C853.3,32,907,32,960,58.7C1013.3,85,1067,139,1120,149.3C1173.3,160,1227,128,1280,128C1333.3,128,1387,160,1413,176L1440,192L1440,320L1413.3,320C1386.7,320,1333,320,1280,320C1226.7,320,1173,320,1120,320C1066.7,320,1013,320,960,320C906.7,320,853,320,800,320C746.7,320,693,320,640,320C586.7,320,533,320,480,320C426.7,320,373,320,320,320C266.7,320,213,320,160,320C106.7,320,53,320,27,320L0,320Z"></path></svg>